<?xml version="1.0" encoding="UTF-8" standalone="no"?>
<!DOCTYPE svg PUBLIC "-//W3C//DTD SVG 1.1//EN" "http://www.w3.org/Graphics/SVG/1.1/DTD/svg11.dtd">
<svg width="100%" height="100%" viewBox="0 0 2317 877" version="1.1" xmlns="http://www.w3.org/2000/svg" xmlns:xlink="http://www.w3.org/1999/xlink" xml:space="preserve" xmlns:serif="http://www.serif.com/" style="fill-rule:evenodd;clip-rule:evenodd;stroke-linejoin:round;stroke-miterlimit:1.41421;">
    <g transform="matrix(1.33333,0,0,1.33333,-1461.88,-1658.03)">
        <g transform="matrix(1,0,0,1,-627.462,-106.393)">
            <g transform="matrix(1,0,0,1,0.461649,86.1329)">
                <g transform="matrix(53.0276,0,0,53.0276,-85501.7,-64207.9)">
                    <path d="M1651.26,1234.88L1644.9,1234.88L1644.9,1236.39L1647.05,1236.39L1647.05,1243.19L1649.02,1243.19L1649.02,1236.39L1651.07,1236.39L1651.26,1234.88Z" style="fill:white;fill-rule:nonzero;"/>
                    <rect x="1652.05" y="1234.88" width="1.968" height="8.316" style="fill:white;fill-rule:nonzero;"/>
                    <path d="M1657.54,1234.88L1655.57,1234.88L1655.57,1243.19L1657.54,1243.19L1657.54,1234.88ZM1662.31,1234.88L1660.24,1234.88L1657.6,1238.75L1660.25,1243.19L1662.53,1243.19L1659.66,1238.61L1662.31,1234.88Z" style="fill:white;fill-rule:nonzero;"/>
                    <path d="M1665.13,1234.88L1663.16,1234.88L1663.16,1243.19L1665.13,1243.19L1665.13,1234.88ZM1669.91,1234.88L1667.83,1234.88L1665.19,1238.75L1667.84,1243.19L1670.12,1243.19L1667.26,1238.61L1669.91,1234.88Z" style="fill:white;fill-rule:nonzero;"/>
                    <path d="M1673.9,1234.67C1671.56,1234.67 1670.16,1236.32 1670.16,1239.03C1670.16,1241.8 1671.56,1243.4 1673.9,1243.4C1676.26,1243.4 1677.66,1241.75 1677.66,1239.03C1677.66,1236.26 1676.26,1234.67 1673.9,1234.67ZM1673.9,1236.11C1675.02,1236.11 1675.6,1236.93 1675.6,1239.03C1675.6,1241.14 1675.03,1241.96 1673.9,1241.96C1672.82,1241.96 1672.22,1241.14 1672.22,1239.03C1672.22,1236.93 1672.8,1236.11 1673.9,1236.11Z" style="fill:white;fill-rule:nonzero;"/>
                </g>
                <g transform="matrix(15.9808,0,0,15.9808,-24428.9,-17947.9)">
                    <path d="M1646.22,1234.86C1644.41,1234.86 1642.93,1236.27 1642.93,1239.09C1642.93,1241.85 1644.32,1243.32 1646.2,1243.32C1647.18,1243.32 1647.85,1242.96 1648.37,1242.5L1648.06,1242.11C1647.56,1242.51 1647.08,1242.81 1646.22,1242.81C1644.72,1242.81 1643.53,1241.62 1643.53,1239.09C1643.53,1236.42 1644.76,1235.36 1646.26,1235.36C1646.95,1235.36 1647.41,1235.55 1647.96,1235.98L1648.27,1235.6C1647.71,1235.14 1647.16,1234.86 1646.22,1234.86Z" style="fill:white;fill-rule:nonzero;"/>
                    <path d="M1654.36,1234.86C1652.41,1234.86 1651.06,1236.4 1651.06,1239.11C1651.06,1241.84 1652.4,1243.32 1654.36,1243.32C1656.37,1243.32 1657.67,1241.79 1657.67,1239.1C1657.67,1236.33 1656.32,1234.86 1654.36,1234.86ZM1654.36,1235.36C1656,1235.36 1657.07,1236.57 1657.07,1239.1C1657.07,1241.6 1656.04,1242.82 1654.36,1242.82C1652.76,1242.82 1651.66,1241.6 1651.66,1239.11C1651.66,1236.58 1652.75,1235.36 1654.36,1235.36Z" style="fill:white;fill-rule:nonzero;"/>
                    <path d="M1666.96,1234.98L1666.42,1234.98L1666.42,1240.16C1666.42,1241.24 1666.46,1242.16 1666.49,1242.56L1662.42,1234.98L1661.69,1234.98L1661.69,1243.19L1662.23,1243.19L1662.23,1238.31C1662.23,1236.86 1662.19,1236.15 1662.16,1235.62L1666.22,1243.19L1666.96,1243.19L1666.96,1234.98Z" style="fill:white;fill-rule:nonzero;"/>
                    <path d="M1673.33,1234.86C1671.92,1234.86 1670.99,1235.7 1670.99,1236.83C1670.99,1237.97 1671.64,1238.54 1673.29,1239.04C1674.78,1239.5 1675.3,1239.93 1675.3,1240.98C1675.3,1242.14 1674.43,1242.82 1673.22,1242.82C1672.24,1242.82 1671.6,1242.47 1671,1241.93L1670.66,1242.3C1671.32,1242.93 1672.13,1243.32 1673.23,1243.32C1674.82,1243.32 1675.87,1242.36 1675.87,1240.97C1675.87,1239.57 1675.06,1239.03 1673.52,1238.56C1672.06,1238.12 1671.56,1237.72 1671.56,1236.82C1671.56,1235.94 1672.27,1235.36 1673.34,1235.36C1674.12,1235.36 1674.67,1235.58 1675.28,1236.12L1675.62,1235.75C1675,1235.2 1674.37,1234.86 1673.33,1234.86Z" style="fill:white;fill-rule:nonzero;"/>
                    <path d="M1683.82,1234.98L1678.27,1234.98L1678.27,1235.5L1680.73,1235.5L1680.73,1243.19L1681.3,1243.19L1681.3,1235.5L1683.74,1235.5L1683.82,1234.98Z" style="fill:white;fill-rule:nonzero;"/>
                    <path d="M1691.63,1243.19L1692.31,1243.19L1690.04,1239.34C1691.2,1239.06 1691.89,1238.43 1691.89,1237.18C1691.89,1235.76 1690.99,1234.98 1689.05,1234.98L1687.12,1234.98L1687.12,1243.19L1687.68,1243.19L1687.68,1239.44L1689.46,1239.44L1691.63,1243.19ZM1687.68,1238.96L1687.68,1235.48L1689.01,1235.48C1690.67,1235.48 1691.29,1236.06 1691.29,1237.18C1691.29,1238.42 1690.5,1238.96 1689.13,1238.96L1687.68,1238.96Z" style="fill:white;fill-rule:nonzero;"/>
                    <path d="M1700.99,1234.98L1700.41,1234.98L1700.41,1240.61C1700.41,1241.93 1699.81,1242.81 1698.36,1242.81C1696.92,1242.81 1696.3,1241.96 1696.3,1240.61L1696.3,1234.98L1695.73,1234.98L1695.73,1240.66C1695.73,1242.21 1696.56,1243.32 1698.36,1243.32C1700.15,1243.32 1700.99,1242.21 1700.99,1240.66L1700.99,1234.98Z" style="fill:white;fill-rule:nonzero;"/>
                    <path d="M1708.18,1234.86C1706.36,1234.86 1704.89,1236.27 1704.89,1239.09C1704.89,1241.85 1706.28,1243.32 1708.15,1243.32C1709.14,1243.32 1709.81,1242.96 1710.32,1242.5L1710.01,1242.11C1709.52,1242.51 1709.04,1242.81 1708.18,1242.81C1706.68,1242.81 1705.49,1241.62 1705.49,1239.09C1705.49,1236.42 1706.71,1235.36 1708.21,1235.36C1708.91,1235.36 1709.36,1235.55 1709.92,1235.98L1710.23,1235.6C1709.66,1235.14 1709.11,1234.86 1708.18,1234.86Z" style="fill:white;fill-rule:nonzero;"/>
                    <path d="M1718.02,1234.98L1712.47,1234.98L1712.47,1235.5L1714.93,1235.5L1714.93,1243.19L1715.5,1243.19L1715.5,1235.5L1717.94,1235.5L1718.02,1234.98Z" style="fill:white;fill-rule:nonzero;"/>
                    <rect x="1721.32" y="1234.98" width="0.564" height="8.208" style="fill:white;fill-rule:nonzero;"/>
                    <path d="M1729.2,1234.86C1727.26,1234.86 1725.9,1236.4 1725.9,1239.11C1725.9,1241.84 1727.24,1243.32 1729.2,1243.32C1731.22,1243.32 1732.51,1241.79 1732.51,1239.1C1732.51,1236.33 1731.17,1234.86 1729.2,1234.86ZM1729.2,1235.36C1730.84,1235.36 1731.91,1236.57 1731.91,1239.1C1731.91,1241.6 1730.88,1242.82 1729.2,1242.82C1727.6,1242.82 1726.5,1241.6 1726.5,1239.11C1726.5,1236.58 1727.59,1235.36 1729.2,1235.36Z" style="fill:white;fill-rule:nonzero;"/>
                    <path d="M1741.8,1234.98L1741.26,1234.98L1741.26,1240.16C1741.26,1241.24 1741.31,1242.16 1741.33,1242.56L1737.26,1234.98L1736.53,1234.98L1736.53,1243.19L1737.07,1243.19L1737.07,1238.31C1737.07,1236.86 1737.04,1236.15 1737,1235.62L1741.07,1243.19L1741.8,1243.19L1741.8,1234.98Z" style="fill:white;fill-rule:nonzero;"/>
                </g>
            </g>
        </g>
    </g>
</svg>
